<?xml version="1.0" encoding="UTF-8"?>
<?xml-stylesheet href="https://assets.antv.antgroup.com/AlibabaPuHuiTi-Regular/result.css" type="text/css"?>
<?xml-stylesheet href="https://assets.antv.antgroup.com/AlibabaPuHuiTi-Bold/result.css" type="text/css"?>
<svg height="232" width="1160" style="" font-family="Alibaba PuHuiTi" xmlns="http://www.w3.org/2000/svg" viewBox="-20 -20 1160 232"><defs /><defs><linearGradient id="letter-card-0-gradient" x1="0%" y1="0%" x2="100%" y2="100%"><stop offset="0%" stop-color="#0378ff" /><stop offset="100%" stop-color="#54a4ff" /></linearGradient><pattern id="letter-card-0-pattern" patternUnits="userSpaceOnUse" width="10" height="10" patternTransform="rotate(45)"><rect x="0" y="0" width="10" height="10" fill="rgba(255, 255, 255, 0)" /><rect x="0" y="0" width="4" height="10" fill="rgba(0, 0, 0, 0.03)" /></pattern><linearGradient id="letter-card-1-gradient" x1="0%" y1="0%" x2="100%" y2="100%"><stop offset="0%" stop-color="#00b5b5" /><stop offset="100%" stop-color="#07ffff" /></linearGradient><pattern id="letter-card-1-pattern" patternUnits="userSpaceOnUse" width="10" height="10" patternTransform="rotate(45)"><rect x="0" y="0" width="10" height="10" fill="rgba(255, 255, 255, 0)" /><rect x="0" y="0" width="4" height="10" fill="rgba(0, 0, 0, 0.03)" /></pattern><linearGradient id="letter-card-2-gradient" x1="0%" y1="0%" x2="100%" y2="100%"><stop offset="0%" stop-color="#ee7b3a" /><stop offset="100%" stop-color="#f5ae85" /></linearGradient><pattern id="letter-card-2-pattern" patternUnits="userSpaceOnUse" width="10" height="10" patternTransform="rotate(45)"><rect x="0" y="0" width="10" height="10" fill="rgba(255, 255, 255, 0)" /><rect x="0" y="0" width="4" height="10" fill="rgba(0, 0, 0, 0.03)" /></pattern><linearGradient id="letter-card-3-gradient" x1="0%" y1="0%" x2="100%" y2="100%"><stop offset="0%" stop-color="#ce6cff" /><stop offset="100%" stop-color="#e9bdff" /></linearGradient><pattern id="letter-card-3-pattern" patternUnits="userSpaceOnUse" width="10" height="10" patternTransform="rotate(45)"><rect x="0" y="0" width="10" height="10" fill="rgba(255, 255, 255, 0)" /><rect x="0" y="0" width="4" height="10" fill="rgba(0, 0, 0, 0.03)" /></pattern></defs><g id="infographic-container"><g><g><rect x="0" y="0" width="280" height="192" fill="#1783FF14" rx="0" ry="0" /><g><rect x="0" y="0" width="280" height="160" fill="url(#letter-card-0-gradient)" rx="0" ry="0" /><rect x="0" y="0" width="280" height="160" fill="url(#letter-card-0-pattern)" rx="0" ry="0" /><g transform="translate(0, 19)"><foreignObject height="96" width="280" y="0" x="0" overflow="visible"><span style="overflow:visible;color:#FFFFFF;font-weight:bold;font-size:96px;line-height:1;width:100%;height:100%;display:flex;flex-wrap:wrap;word-break:break-word;white-space:pre-wrap;text-align:center;justify-content:center;align-content:flex-start;align-items:flex-start" xmlns="http://www.w3.org/1999/xhtml">S</span></foreignObject></g><g transform="translate(0, 125)"><foreignObject height="16" width="280" y="0" x="0" overflow="visible"><span style="overflow:visible;color:#FFFFFF;font-weight:bold;font-size:16px;line-height:1;width:100%;height:100%;display:flex;flex-wrap:wrap;word-break:break-word;white-space:pre-wrap;text-align:center;justify-content:center;align-content:center;align-items:center" xmlns="http://www.w3.org/1999/xhtml">STRENGTHS</span></foreignObject></g></g><rect x="280" y="0" width="280" height="192" fill="#00C9C914" rx="0" ry="0" /><g transform="translate(280, 0)"><rect x="0" y="0" width="280" height="160" fill="url(#letter-card-1-gradient)" rx="0" ry="0" /><rect x="0" y="0" width="280" height="160" fill="url(#letter-card-1-pattern)" rx="0" ry="0" /><g transform="translate(0, 19)"><foreignObject height="96" width="280" y="0" x="0" overflow="visible"><span style="overflow:visible;color:#FFFFFF;font-weight:bold;font-size:96px;line-height:1;width:100%;height:100%;display:flex;flex-wrap:wrap;word-break:break-word;white-space:pre-wrap;text-align:center;justify-content:center;align-content:flex-start;align-items:flex-start" xmlns="http://www.w3.org/1999/xhtml">W</span></foreignObject></g><g transform="translate(0, 125)"><foreignObject height="16" width="280" y="0" x="0" overflow="visible"><span style="overflow:visible;color:#FFFFFF;font-weight:bold;font-size:16px;line-height:1;width:100%;height:100%;display:flex;flex-wrap:wrap;word-break:break-word;white-space:pre-wrap;text-align:center;justify-content:center;align-content:center;align-items:center" xmlns="http://www.w3.org/1999/xhtml">WEAKNESSES</span></foreignObject></g></g><rect x="560" y="0" width="280" height="192" fill="#F0884D14" rx="0" ry="0" /><g transform="translate(560, 0)"><rect x="0" y="0" width="280" height="160" fill="url(#letter-card-2-gradient)" rx="0" ry="0" /><rect x="0" y="0" width="280" height="160" fill="url(#letter-card-2-pattern)" rx="0" ry="0" /><g transform="translate(0, 19)"><foreignObject height="96" width="280" y="0" x="0" overflow="visible"><span style="overflow:visible;color:#FFFFFF;font-weight:bold;font-size:96px;line-height:1;width:100%;height:100%;display:flex;flex-wrap:wrap;word-break:break-word;white-space:pre-wrap;text-align:center;justify-content:center;align-content:flex-start;align-items:flex-start" xmlns="http://www.w3.org/1999/xhtml">O</span></foreignObject></g><g transform="translate(0, 125)"><foreignObject height="16" width="280" y="0" x="0" overflow="visible"><span style="overflow:visible;color:#FFFFFF;font-weight:bold;font-size:16px;line-height:1;width:100%;height:100%;display:flex;flex-wrap:wrap;word-break:break-word;white-space:pre-wrap;text-align:center;justify-content:center;align-content:center;align-items:center" xmlns="http://www.w3.org/1999/xhtml">OPPORTUNITIES</span></foreignObject></g></g><rect x="840" y="0" width="280" height="192" fill="#D580FF14" rx="0" ry="0" /><g transform="translate(840, 0)"><rect x="0" y="0" width="280" height="160" fill="url(#letter-card-3-gradient)" rx="0" ry="0" /><rect x="0" y="0" width="280" height="160" fill="url(#letter-card-3-pattern)" rx="0" ry="0" /><g transform="translate(0, 19)"><foreignObject height="96" width="280" y="0" x="0" overflow="visible"><span style="overflow:visible;color:#FFFFFF;font-weight:bold;font-size:96px;line-height:1;width:100%;height:100%;display:flex;flex-wrap:wrap;word-break:break-word;white-space:pre-wrap;text-align:center;justify-content:center;align-content:flex-start;align-items:flex-start" xmlns="http://www.w3.org/1999/xhtml">T</span></foreignObject></g><g transform="translate(0, 125)"><foreignObject height="16" width="280" y="0" x="0" overflow="visible"><span style="overflow:visible;color:#FFFFFF;font-weight:bold;font-size:16px;line-height:1;width:100%;height:100%;display:flex;flex-wrap:wrap;word-break:break-word;white-space:pre-wrap;text-align:center;justify-content:center;align-content:center;align-items:center" xmlns="http://www.w3.org/1999/xhtml">THREATS</span></foreignObject></g></g></g></g></g></svg>