<?xml version="1.0" encoding="UTF-8"?>
<?xml-stylesheet href="https://assets.antv.antgroup.com/AlibabaPuHuiTi-Regular/result.css" type="text/css"?>
<?xml-stylesheet href="https://assets.antv.antgroup.com/AlibabaPuHuiTi-Bold/result.css" type="text/css"?>
<svg height="844" width="900" style="" font-family="Alibaba PuHuiTi" xmlns="http://www.w3.org/2000/svg" viewBox="-20 -20 900 844"><defs /><defs><radialGradient id="#1783ff-badge" cx="50%" cy="50%" r="50%"><stop offset="0%" stop-color="#1783ff" /><stop offset="100%" stop-color="#0052b0" /></radialGradient><radialGradient id="#00c9c9-badge" cx="50%" cy="50%" r="50%"><stop offset="0%" stop-color="#00c9c9" /><stop offset="100%" stop-color="#006363" /></radialGradient><radialGradient id="#f0884d-badge" cx="50%" cy="50%" r="50%"><stop offset="0%" stop-color="#f0884d" /><stop offset="100%" stop-color="#c65211" /></radialGradient><radialGradient id="#d580ff-badge" cx="50%" cy="50%" r="50%"><stop offset="0%" stop-color="#d580ff" /><stop offset="100%" stop-color="#b31aff" /></radialGradient><radialGradient id="#7863ff-badge" cx="50%" cy="50%" r="50%"><stop offset="0%" stop-color="#7863ff" /><stop offset="100%" stop-color="#2200fc" /></radialGradient><radialGradient id="#60c42d-badge" cx="50%" cy="50%" r="50%"><stop offset="0%" stop-color="#60c42d" /><stop offset="100%" stop-color="#37711a" /></radialGradient><radialGradient id="#bd8f24-badge" cx="50%" cy="50%" r="50%"><stop offset="0%" stop-color="#bd8f24" /><stop offset="100%" stop-color="#674e14" /></radialGradient><radialGradient id="#ff80ca-badge" cx="50%" cy="50%" r="50%"><stop offset="0%" stop-color="#ff80ca" /><stop offset="100%" stop-color="#ff1a9f" /></radialGradient></defs><g id="infographic-container"><g><path width="400" height="804" d="M 630 0 L 290 0 A 60 60 0 0 0 290 120 L 290 120 L 570 120 A 36 36 0 0 1 570 192 L 570 192 L 290 192 A 60 60 0 0 0 290 312 L 290 312 L 570 312 A 36 36 0 0 1 570 384 L 570 384 L 290 384 A 60 60 0 0 0 290 504 L 290 504 L 570 504 A 36 36 0 0 1 570 576 L 570 576 L 290 576 A 60 60 0 0 0 290 696 L 290 696 L 570 696 A 36 36 0 0 1 570 768 L 430 768 L 430 756 L 406 780 L 430 804 L 430 792 L 570 792 A 60 60 0 0 0 570 672 L 570 672 L 290 672 A 36 36 0 0 1 290 600 L 290 600 L 570 600 A 60 60 0 0 0 570 480 L 570 480 L 290 480 A 36 36 0 0 1 290 408 L 290 408 L 570 408 A 60 60 0 0 0 570 288 L 570 288 L 290 288 A 36 36 0 0 1 290 216 L 290 216 L 570 216 A 60 60 0 0 0 570 96 L 570 96 L 290 96 A 36 36 0 0 1 290 24 L 290 24 L 630 24 Z" fill="#666666" stroke="#666666" stroke-width="4" stroke-linecap="round" stroke-linejoin="round" /><path d="M 630 12 L 290 12 A 48 48 0 0 0 290 108 L 570 108 A 48 48 0 0 1 570 204 L 570 204 L 290 204 A 48 48 0 0 0 290 300 L 570 300 A 48 48 0 0 1 570 396 L 570 396 L 290 396 A 48 48 0 0 0 290 492 L 570 492 A 48 48 0 0 1 570 588 L 570 588 L 290 588 A 48 48 0 0 0 290 684 L 570 684 A 48 48 0 0 1 570 780 L 430 780" stroke="white" fill="none" stroke-width="3" stroke-dasharray="8 8" stroke-linecap="round" stroke-linejoin="round" /><g transform="translate(265, 35)"><ellipse width="50" height="50" fill="#1783FF" cx="25" cy="25" rx="25" ry="25" /></g><g transform="translate(545, 131)"><ellipse width="50" height="50" fill="#00C9C9" cx="25" cy="25" rx="25" ry="25" /></g><g transform="translate(265, 227)"><ellipse width="50" height="50" fill="#F0884D" cx="25" cy="25" rx="25" ry="25" /></g><g transform="translate(545, 323)"><ellipse width="50" height="50" fill="#D580FF" cx="25" cy="25" rx="25" ry="25" /></g><g transform="translate(265, 419)"><ellipse width="50" height="50" fill="#7863FF" cx="25" cy="25" rx="25" ry="25" /></g><g transform="translate(545, 515)"><ellipse width="50" height="50" fill="#60C42D" cx="25" cy="25" rx="25" ry="25" /></g><g transform="translate(265, 611)"><ellipse width="50" height="50" fill="#BD8F24" cx="25" cy="25" rx="25" ry="25" /></g><g transform="translate(545, 707)"><ellipse width="50" height="50" fill="#FF80CA" cx="25" cy="25" rx="25" ry="25" /></g><g transform="translate(325, 45)"><text width="40" height="43" x="0" y="0" fill="#1783FF" font-size="30" text-anchor="start" dominant-baseline="hanging">01</text></g><g transform="translate(495, 141)"><text width="40" height="43" x="40" y="0" fill="#00C9C9" font-size="30" text-anchor="end" dominant-baseline="hanging">02</text></g><g transform="translate(325, 237)"><text width="40" height="43" x="0" y="0" fill="#F0884D" font-size="30" text-anchor="start" dominant-baseline="hanging">03</text></g><g transform="translate(495, 333)"><text width="40" height="43" x="40" y="0" fill="#D580FF" font-size="30" text-anchor="end" dominant-baseline="hanging">04</text></g><g transform="translate(325, 429)"><text width="40" height="43" x="0" y="0" fill="#7863FF" font-size="30" text-anchor="start" dominant-baseline="hanging">05</text></g><g transform="translate(495, 525)"><text width="40" height="43" x="40" y="0" fill="#60C42D" font-size="30" text-anchor="end" dominant-baseline="hanging">06</text></g><g transform="translate(325, 621)"><text width="40" height="43" x="0" y="0" fill="#BD8F24" font-size="30" text-anchor="start" dominant-baseline="hanging">07</text></g><g transform="translate(495, 717)"><text width="40" height="43" x="40" y="0" fill="#FF80CA" font-size="30" text-anchor="end" dominant-baseline="hanging">08</text></g><g transform="translate(0, 20)"><rect x="0" y="0" width="200" height="80" fill="#1783ff1a" rx="8" ry="8" /><g transform="translate(8, 8)"><g transform="translate(0, 10)"><foreignObject height="20" width="184" y="0" x="0" overflow="visible"><span style="overflow:visible;color:#262626;font-weight:bold;font-size:14px;line-height:1.4;width:100%;height:100%;display:flex;flex-wrap:wrap;word-break:break-word;white-space:pre-wrap;text-align:right;justify-content:flex-end;align-content:center;align-items:center" xmlns="http://www.w3.org/1999/xhtml">Phase 1: Discovery</span></foreignObject></g></g><g transform="translate(8, 48)"><foreignObject height="27" width="184" y="0" x="0" overflow="visible"><span style="overflow:visible;color:#5a5a5a;font-size:11px;line-height:1.2;width:100%;height:100%;display:flex;flex-wrap:wrap;word-break:break-word;white-space:pre-wrap;text-align:right;justify-content:flex-end;align-content:flex-start;align-items:flex-start" xmlns="http://www.w3.org/1999/xhtml">Plan, Principles, Stakeholders - establish governance foundations and identify who cares about this project</span></foreignObject></g></g><g transform="translate(660, 116)"><rect x="0" y="0" width="200" height="80" fill="#00c9c91a" rx="8" ry="8" /><g transform="translate(8, 8)"><g transform="translate(0, 10)"><foreignObject height="20" width="184" y="0" x="0" overflow="visible"><span style="overflow:visible;color:#262626;font-weight:bold;font-size:14px;line-height:1.4;width:100%;height:100%;display:flex;flex-wrap:wrap;word-break:break-word;white-space:pre-wrap;text-align:left;justify-content:flex-start;align-content:center;align-items:center" xmlns="http://www.w3.org/1999/xhtml">Phase 2: Business Case</span></foreignObject></g></g><g transform="translate(8, 48)"><foreignObject height="27" width="184" y="0" x="0" overflow="visible"><span style="overflow:visible;color:#5a5a5a;font-size:11px;line-height:1.2;width:100%;height:100%;display:flex;flex-wrap:wrap;word-break:break-word;white-space:pre-wrap;text-align:left;justify-content:flex-start;align-content:flex-start;align-items:flex-start" xmlns="http://www.w3.org/1999/xhtml">Risk (Orange Book), SOBC (Green Book), Requirements (BR/FR/NFR/INT/DR) - justify the investment</span></foreignObject></g></g><g transform="translate(0, 212)"><rect x="0" y="0" width="200" height="80" fill="#f0884d1a" rx="8" ry="8" /><g transform="translate(8, 8)"><g transform="translate(0, 10)"><foreignObject height="20" width="184" y="0" x="0" overflow="visible"><span style="overflow:visible;color:#262626;font-weight:bold;font-size:14px;line-height:1.4;width:100%;height:100%;display:flex;flex-wrap:wrap;word-break:break-word;white-space:pre-wrap;text-align:right;justify-content:flex-end;align-content:center;align-items:center" xmlns="http://www.w3.org/1999/xhtml">Phase 3: Research &amp; Design</span></foreignObject></g></g><g transform="translate(8, 48)"><foreignObject height="27" width="184" y="0" x="0" overflow="visible"><span style="overflow:visible;color:#5a5a5a;font-size:11px;line-height:1.2;width:100%;height:100%;display:flex;flex-wrap:wrap;word-break:break-word;white-space:pre-wrap;text-align:right;justify-content:flex-end;align-content:flex-start;align-items:flex-start" xmlns="http://www.w3.org/1999/xhtml">DataScout, Research, Wardley Maps, Data Model, Diagrams - explore options and design the solution</span></foreignObject></g></g><g transform="translate(660, 308)"><rect x="0" y="0" width="200" height="80" fill="#d580ff1a" rx="8" ry="8" /><g transform="translate(8, 8)"><g transform="translate(0, 10)"><foreignObject height="20" width="184" y="0" x="0" overflow="visible"><span style="overflow:visible;color:#262626;font-weight:bold;font-size:14px;line-height:1.4;width:100%;height:100%;display:flex;flex-wrap:wrap;word-break:break-word;white-space:pre-wrap;text-align:left;justify-content:flex-start;align-content:center;align-items:center" xmlns="http://www.w3.org/1999/xhtml">Phase 4: Procurement</span></foreignObject></g></g><g transform="translate(8, 48)"><foreignObject height="27" width="184" y="0" x="0" overflow="visible"><span style="overflow:visible;color:#5a5a5a;font-size:11px;line-height:1.2;width:100%;height:100%;display:flex;flex-wrap:wrap;word-break:break-word;white-space:pre-wrap;text-align:left;justify-content:flex-start;align-content:flex-start;align-items:flex-start" xmlns="http://www.w3.org/1999/xhtml">SOW, G-Cloud/DOS, Evaluate, Score - select vendors and technologies</span></foreignObject></g></g><g transform="translate(0, 404)"><rect x="0" y="0" width="200" height="80" fill="#7863ff1a" rx="8" ry="8" /><g transform="translate(8, 8)"><g transform="translate(0, 10)"><foreignObject height="20" width="184" y="0" x="0" overflow="visible"><span style="overflow:visible;color:#262626;font-weight:bold;font-size:14px;line-height:1.4;width:100%;height:100%;display:flex;flex-wrap:wrap;word-break:break-word;white-space:pre-wrap;text-align:right;justify-content:flex-end;align-content:center;align-items:center" xmlns="http://www.w3.org/1999/xhtml">Phase 5: Implementation</span></foreignObject></g></g><g transform="translate(8, 48)"><foreignObject height="27" width="184" y="0" x="0" overflow="visible"><span style="overflow:visible;color:#5a5a5a;font-size:11px;line-height:1.2;width:100%;height:100%;display:flex;flex-wrap:wrap;word-break:break-word;white-space:pre-wrap;text-align:right;justify-content:flex-end;align-content:flex-start;align-items:flex-start" xmlns="http://www.w3.org/1999/xhtml">HLD/DLD Reviews, ADRs, Backlog, User Stories - build and review</span></foreignObject></g></g><g transform="translate(660, 500)"><rect x="0" y="0" width="200" height="80" fill="#60c42d1a" rx="8" ry="8" /><g transform="translate(8, 8)"><g transform="translate(0, 10)"><foreignObject height="20" width="184" y="0" x="0" overflow="visible"><span style="overflow:visible;color:#262626;font-weight:bold;font-size:14px;line-height:1.4;width:100%;height:100%;display:flex;flex-wrap:wrap;word-break:break-word;white-space:pre-wrap;text-align:left;justify-content:flex-start;align-content:center;align-items:center" xmlns="http://www.w3.org/1999/xhtml">Phase 6: Operations</span></foreignObject></g></g><g transform="translate(8, 48)"><foreignObject height="27" width="184" y="0" x="0" overflow="visible"><span style="overflow:visible;color:#5a5a5a;font-size:11px;line-height:1.2;width:100%;height:100%;display:flex;flex-wrap:wrap;word-break:break-word;white-space:pre-wrap;text-align:left;justify-content:flex-start;align-content:flex-start;align-items:flex-start" xmlns="http://www.w3.org/1999/xhtml">ServiceNow, DevOps, MLOps, FinOps, Operationalize - prepare for production</span></foreignObject></g></g><g transform="translate(0, 596)"><rect x="0" y="0" width="200" height="80" fill="#bd8f241a" rx="8" ry="8" /><g transform="translate(8, 8)"><g transform="translate(0, 10)"><foreignObject height="20" width="184" y="0" x="0" overflow="visible"><span style="overflow:visible;color:#262626;font-weight:bold;font-size:14px;line-height:1.4;width:100%;height:100%;display:flex;flex-wrap:wrap;word-break:break-word;white-space:pre-wrap;text-align:right;justify-content:flex-end;align-content:center;align-items:center" xmlns="http://www.w3.org/1999/xhtml">Phase 7: Compliance</span></foreignObject></g></g><g transform="translate(8, 48)"><foreignObject height="27" width="184" y="0" x="0" overflow="visible"><span style="overflow:visible;color:#5a5a5a;font-size:11px;line-height:1.2;width:100%;height:100%;display:flex;flex-wrap:wrap;word-break:break-word;white-space:pre-wrap;text-align:right;justify-content:flex-end;align-content:flex-start;align-items:flex-start" xmlns="http://www.w3.org/1999/xhtml">TCoP, Secure by Design, ATRS, AI Playbook, Service Assessment - meet governance standards</span></foreignObject></g></g><g transform="translate(660, 692)"><rect x="0" y="0" width="200" height="80" fill="#ff80ca1a" rx="8" ry="8" /><g transform="translate(8, 8)"><g transform="translate(0, 10)"><foreignObject height="20" width="184" y="0" x="0" overflow="visible"><span style="overflow:visible;color:#262626;font-weight:bold;font-size:14px;line-height:1.4;width:100%;height:100%;display:flex;flex-wrap:wrap;word-break:break-word;white-space:pre-wrap;text-align:left;justify-content:flex-start;align-content:center;align-items:center" xmlns="http://www.w3.org/1999/xhtml">Phase 8: Reporting</span></foreignObject></g></g><g transform="translate(8, 48)"><foreignObject height="27" width="184" y="0" x="0" overflow="visible"><span style="overflow:visible;color:#5a5a5a;font-size:11px;line-height:1.2;width:100%;height:100%;display:flex;flex-wrap:wrap;word-break:break-word;white-space:pre-wrap;text-align:left;justify-content:flex-start;align-content:flex-start;align-items:flex-start" xmlns="http://www.w3.org/1999/xhtml">Story, Presentation, Pages Dashboard - communicate and publish</span></foreignObject></g></g><polygon x="210" y="55" width="10" height="8" fill="#1783FF" stroke="#1783FF" stroke-width="4" stroke-linecap="round" stroke-linejoin="round" transform="translate(210, 55)rotate(-90 5 4)" points="5,0 10,8 0,8" /><polygon x="640" y="151" width="10" height="8" fill="#00C9C9" stroke="#00C9C9" stroke-width="4" stroke-linecap="round" stroke-linejoin="round" transform="translate(640, 151)rotate(90 5 4)" points="5,0 10,8 0,8" /><polygon x="210" y="247" width="10" height="8" fill="#F0884D" stroke="#F0884D" stroke-width="4" stroke-linecap="round" stroke-linejoin="round" transform="translate(210, 247)rotate(-90 5 4)" points="5,0 10,8 0,8" /><polygon x="640" y="343" width="10" height="8" fill="#D580FF" stroke="#D580FF" stroke-width="4" stroke-linecap="round" stroke-linejoin="round" transform="translate(640, 343)rotate(90 5 4)" points="5,0 10,8 0,8" /><polygon x="210" y="439" width="10" height="8" fill="#7863FF" stroke="#7863FF" stroke-width="4" stroke-linecap="round" stroke-linejoin="round" transform="translate(210, 439)rotate(-90 5 4)" points="5,0 10,8 0,8" /><polygon x="640" y="535" width="10" height="8" fill="#60C42D" stroke="#60C42D" stroke-width="4" stroke-linecap="round" stroke-linejoin="round" transform="translate(640, 535)rotate(90 5 4)" points="5,0 10,8 0,8" /><polygon x="210" y="631" width="10" height="8" fill="#BD8F24" stroke="#BD8F24" stroke-width="4" stroke-linecap="round" stroke-linejoin="round" transform="translate(210, 631)rotate(-90 5 4)" points="5,0 10,8 0,8" /><polygon x="640" y="727" width="10" height="8" fill="#FF80CA" stroke="#FF80CA" stroke-width="4" stroke-linecap="round" stroke-linejoin="round" transform="translate(640, 727)rotate(90 5 4)" points="5,0 10,8 0,8" /></g></g></svg>